<?xml version="1.0" encoding="UTF-8"?>
<!DOCTYPE svg PUBLIC "-//W3C//DTD SVG 1.1//EN" "http://www.w3.org/Graphics/SVG/1.1/DTD/svg11.dtd">
<!-- Creator: CorelDRAW 2019 (64-Bit) -->
<svg xmlns="http://www.w3.org/2000/svg" xml:space="preserve" width="187.228mm" height="160.443mm" version="1.1" style="shape-rendering:geometricPrecision; text-rendering:geometricPrecision; image-rendering:optimizeQuality; fill-rule:evenodd; clip-rule:evenodd"
viewBox="0 0 187.2284 160.4427"
 xmlns:xlink="http://www.w3.org/1999/xlink"
 xmlns:xodm="http://www.corel.com/coreldraw/odm/2003">
 <defs>
  <style type="text/css">
   <![CDATA[
    .fil1 {fill:#FEFEFE}
    .fil0 {fill:#DB1F24}
   ]]>
  </style>
 </defs>
 <g id="Layer_x0020_1">
  <metadata id="CorelCorpID_0Corel-Layer"/>
  <g id="_822214448">
   <path class="fil0" d="M93.641 0c-54.7314,0 -93.641,21.3753 -93.641,80.2485 0,58.8121 38.9101,80.1942 93.641,80.1942 54.6997,0 93.5874,-21.3821 93.5874,-80.1942 0,-58.8394 -38.8877,-80.2485 -93.5874,-80.2485z"/>
   <path class="fil1" d="M93.641 4.6898c43.1086,0 75.7669,14.0902 85.3453,51.1318l-170.6904 0c9.5414,-37.0416 42.2072,-51.1318 85.3451,-51.1318z"/>
   <path class="fil0" d="M93.641 9.3536c-37.733,0 -66.9371,11.4938 -77.9436,41.2627l155.861 0c-11.0075,-29.7689 -40.2125,-41.2627 -77.9174,-41.2627z"/>
   <polygon class="fil1" points="8.7572,61.6232 22.9358,61.6232 22.9358,68.6179 20.6315,68.6179 24.237,79.0555 24.7794,79.0555 28.3581,68.6179 26.1081,68.6179 26.1081,61.6232 38.1183,61.6232 38.1183,68.6179 35.8952,68.6179 39.4738,79.0555 40.0157,79.0555 43.5947,68.6179 41.3443,68.6179 41.3443,61.6232 55.496,61.6232 55.496,68.6179 53.2461,68.6179 43.1879,97.5182 36.5457,97.5182 32.6147,86.3213 31.6117,86.3213 27.7075,97.5182 21.0654,97.5182 11.007,68.6179 8.7572,68.6179 "/>
   <path class="fil1" d="M133.9553 61.6232c0.8452,0 1.6864,0 2.4678,0 5.3711,0.1057 9.6397,0.7609 11.8201,6.9678 0.4875,1.5216 0.7594,3.1058 0.7594,4.7711l0 0.3524c-0.0313,2.3928 -0.5695,4.8209 -1.546,7.1033 -2.0206,4.6787 -6.7375,4.2937 -11.0335,4.2561 -0.6839,0 -1.3547,-0.0102 -2.0074,0.0274l0 5.4222 2.2505 0 0 6.9947 -14.938 0 0 -6.9947 2.2501 0 0.0544 -21.9056 -2.2504 0 0 -6.9678 12.173 -0.0269z"/>
   <polygon class="fil1" points="57.7735,61.6501 72.6845,61.6501 72.6845,68.6179 70.4341,68.6179 70.4341,90.5506 72.6845,90.5506 72.6845,97.5182 57.7735,97.5182 57.7735,90.5506 60.024,90.5506 60.024,68.6179 57.7735,68.6179 "/>
   <path class="fil1" d="M74.9076 61.6501l16.1311 0 4.826 13.9894c0.162,0.6237 0.7318,1.0844 1.3824,1.0844 0.6532,0 1.2119,-0.4607 1.4098,-1.0844l4.7443 -13.9894 16.131 0 0 6.9678 -2.2504 0 0 21.9327 2.2504 0 0 6.9676 -14.9923 0 0 -6.9947 2.2505 0 0 -7.4013c-0.0326,-0.6924 -0.5389,-1.2469 -1.1932,-1.2469 -0.5189,0 -0.9745,0.361 -1.1387,0.8131l-5.1783 14.8024 -4.0667 0c0,0 -4.8828,-14.0457 -5.1778,-14.7755 -0.163,-0.484 -0.6201,-0.84 -1.1387,-0.84 -0.6847,0 -1.2474,0.6088 -1.2474,1.3012l0.0274 7.347 2.2501 0 -0.027 6.9947 -14.9381 0 0 -6.9676 2.1962 0 0 -21.9327 -2.2506 0 0 -6.9678z"/>
   <path class="fil1" d="M149.9504 61.6501l13.1488 0 0 6.9678 -2.2492 0c0,0 1.4913,3.1037 2.4391,5.0428 0.1613,0.3155 0.4876,0.5694 0.8412,0.5694 0.359,0 0.6787,-0.2199 0.84,-0.5694 0.944,-1.9391 2.4664,-5.0428 2.4678,-5.0428l-2.278 0 0 -6.9678 13.1488 0 0 6.9678 -2.2505 0 -6.7507 11.9556 0 9.95 2.278 0 0 6.9947 -14.912 0 0 -6.9947 2.278 0 0 -9.95 -6.7233 -11.9556 -2.278 0 0 -6.9678z"/>
   <path class="fil0" d="M134.4157 66.9368l0 12.1456c0,0.0006 0.784,0 1.9256,0 0.0298,0.0006 0.0506,0 0.0806,0 1.1065,-0.068 2.0334,-1.3601 2.0334,-6.0728 0,-4.4729 -0.9269,-6.0042 -2.0334,-6.0728 -0.03,0 -0.0508,0 -0.0806,0l-1.9256 0z"/>
   <path class="fil1" d="M176.3834 92.6654l0.0273 0c1.3289,0 2.5756,1.0071 2.5756,2.738 0,1.7345 -1.2467,2.7644 -2.5756,2.7654l-0.0273 0c-1.3678,0 -2.5744,-1.0309 -2.5744,-2.7654 0,-1.7309 1.2066,-2.738 2.5744,-2.738z"/>
   <path class="fil0" d="M176.3834 93.316c-1.0102,0 -1.8436,0.84 -1.8436,2.0874 0,1.2859 0.8347,2.1148 1.8436,2.1148l0.0273 0c0.9752,0 1.8164,-0.8298 1.8164,-2.1148 0,-1.2484 -0.8412,-2.0874 -1.8164,-2.0874l-0.0273 0z"/>
   <path class="fil1" d="M175.3536 93.9397l1.0571 0c0.7112,0 1.139,0.2052 1.139,0.8675 0,0.555 -0.2887,0.7785 -0.6775,0.8131l0.7048 1.2742 -0.6774 0 -0.5162 -0.9761 -0.1353 -0.2712 -0.2977 0 0 1.2473 -0.5968 0 0 -2.9548z"/>
   <path class="fil0" d="M175.9504 94.4273l0 0.7324 0.515 0c0.2911,0 0.4342,-0.0682 0.4342,-0.38 0,-0.3114 -0.286,-0.3524 -0.5162,-0.3524l-0.433 0z"/>
   <path class="fil1" d="M7.971 103.2929l171.3145 0c-9.0846,38.0496 -42.0484,52.5138 -85.6445,52.5138 -43.627,0 -76.5831,-14.4631 -85.67,-52.5138z"/>
   <path class="fil0" d="M15.2362 108.5253c10.6165,30.7364 40.1157,42.5641 78.4048,42.5641 38.2276,0 67.7642,-11.8277 78.3777,-42.5641l-156.7825 0z"/>
  </g>
 </g>
</svg>
